<?xml version="1.0" encoding="utf-8"?>
<!-- Generated by IcoMoon.io -->
<!DOCTYPE svg PUBLIC "-//W3C//DTD SVG 1.1//EN" "http://www.w3.org/Graphics/SVG/1.1/DTD/svg11.dtd">
<svg version="1.1" xmlns="http://www.w3.org/2000/svg" xmlns:xlink="http://www.w3.org/1999/xlink" width="21" height="20" viewBox="0 0 60 60">
<g>
	<line stroke-width="1" x1="" y1="" x2="" y2="" stroke="#449FDB" opacity=""></line>
</g>
	<path d="M1.983 52.92l3.535 3.535 10.962-10.962-3.443-3.627-11.055 11.055zM35.313 2.5c-12.25 0-22.188 9.935-22.188 22.188 0 4.797 1.542 9.225 4.13 12.858l4.175 4.4c3.803 3.067 8.617 4.932 13.883 4.932 12.255 0 22.188-9.935 22.188-22.188s-9.933-22.19-22.188-22.19zM35.313 41.875c-9.477 0-17.187-7.71-17.187-17.187s7.71-17.187 17.187-17.187 17.187 7.71 17.187 17.187-7.71 17.187-17.187 17.187z" fill="#068174"></path>
</svg>
