<?xml version="1.0" encoding="utf-8"?>
<!-- Generated by IcoMoon.io -->
<!DOCTYPE svg PUBLIC "-//W3C//DTD SVG 1.1//EN" "http://www.w3.org/Graphics/SVG/1.1/DTD/svg11.dtd">
<svg version="1.1" xmlns="http://www.w3.org/2000/svg" xmlns:xlink="http://www.w3.org/1999/xlink" width="22" height="20" viewBox="0 0 60 60">
<g>
	<line stroke-width="1" x1="" y1="" x2="" y2="" stroke="#449FDB" opacity=""></line>
</g>
	<path d="M30.004 33.274c6.204 0 11.25-5.048 11.25-11.25s-5.046-11.25-11.25-11.25c-6.204 0-11.25 5.046-11.25 11.25s5.046 11.25 11.25 11.25zM30.004 12.649c5.171 0 9.375 4.204 9.375 9.375s-4.204 9.375-9.375 9.375c-5.171 0-9.375-4.204-9.375-9.375s4.204-9.375 9.375-9.375zM30 0c-12.409 0-22.5 9.967-22.5 22.502 0 13.125 11.252 26.552 19.455 35.989 0.030 0.038 1.346 1.509 2.974 1.509 0.004 0 0.137 0 0.144 0 1.626 0 2.944-1.472 2.974-1.509 8.207-9.437 19.457-22.862 19.457-35.989 0-12.534-10.093-22.502-22.504-22.502zM30.219 56.031c-0.039 0.037-0.154 0.12-0.253 0.184-0.019-0.051-0.157-0.161-0.242-0.249-6.872-7.907-18.474-21.251-18.474-33.463 0-10.339 8.413-18.752 18.75-18.752 10.342 0 18.754 8.413 18.754 18.754 0 12.21-11.602 25.554-18.534 33.527z" fill="#ffffff"></path>
</svg>
